<svg width="30" height="39" viewBox="0 0 30 39" fill="none" xmlns="http://www.w3.org/2000/svg">
<circle cx="12.2464" cy="17.8946" r="10.7925" stroke="black" stroke-width="2.90785"/>
<path d="M12.2463 6.16943V39.0002" stroke="black" stroke-width="2.90785"/>
<path d="M12.2465 33.7885C14.3338 33.7885 16.4006 33.3774 18.329 32.5786C20.2573 31.7799 22.0095 30.6091 23.4854 29.1332C24.9613 27.6573 26.1321 25.9051 26.9309 23.9767C27.7296 22.0483 28.1407 19.9815 28.1407 17.8942C28.1407 15.807 27.7296 13.7402 26.9309 11.8118C26.1321 9.8834 24.9613 8.13123 23.4854 6.65532C22.0095 5.1794 20.2573 4.00864 18.329 3.20988C16.4006 2.41112 14.3338 2 12.2465 2L12.2465 17.8942" stroke="black" stroke-width="2.90785"/>
</svg>
